<svg width="217" height="257" xmlns="http://www.w3.org/2000/svg" xmlns:xlink="http://www.w3.org/1999/xlink"><defs><path d="M5.6 19.09c12.34 8.66 19.34 10.153 25.972 16.6 6.631 6.446 8.105 12.145 13.63 15.465 5.527 3.32 10.5 2.6 13.263.194 3.5-3.127 1.29-7.553-2.763-15.106C47.23 20.196 21.993 1.937 12.414.47 3.02-.996 1.362 2.324.441 6.557-.664 10.984 2.283 16.683 5.6 19.09z" id="a"/><path d="M96.68 6.004S93.915-.83 86.915.277c-7 1.106-9.947 3.68-15.473 3.873-5.526.194-23.578.747-30.393 4.067-6.816 3.292-8.474 8.825-16.578 11.232-8.105 2.407-16.947 1.66-22.29 15.106-5.341 13.474 1.475 24.9 3.87 30.6 2.946 7.192 7.183 12.172 16.209 10.706 8.842-1.3 22.657 15.3 22.657 15.3l6.263-2.02c4.605-1.494 5.894-7.193 2.395-10.513-4.79-4.427-10.684-10.707-14.737-17.32-8.105-13.113-8.842-28.413-8.289-30.432 3.5-12.533 15.657-12.727 20.078-12.893 4.421-.194 5.342-.387 5.342-.387s-6.815 1.494-2.394 19.007c4.42 17.512 14.92 38.151 20.446 41.471 5.526 3.32 13.078 1.107 14.184.913 22.472-2.766 25.788 8.3 27.262 7.553 23.763-12.892 11.42-32.065 11.42-32.065s-9.394 9.047-25.051-2.96c-6.632-5.146-15.473-14.193-15.473-33.532.184-11.26 10.315-11.98 10.315-11.98z" id="c"/></defs><g fill="none" fill-rule="evenodd"><path d="M169.357 134.406s2.58-3.32 4.606-2.766c2.026.553 7.185 13.086 9.026 20.086 1.841 7 4.053 13.64 3.132 20.639-1.29 10.347-7 13.28-10.317 10.153-1.288-1.3-1.473-4.786-2.026-6.833-.736-2.933-1.656-4.233-1.656-4.233s2.026-19.892 1.103-24.319c-.92-4.427-3.868-12.727-3.868-12.727z" fill="#E2603D"/><path d="M87.02 123.146c-2.948 2.6-5.527 3.154-6.816 3.32a177.6 177.6 0 0 1-2.21 2.214c-1.659 2.407-4.422 6.28-8.474 9.212-1.474 1.854-2.763 3.874-3.684 5.727-5.526 11.233-10.684 17.153-11.42 23.96-.185 2.047 0 4.232.736 6.64.921 3.126 1.474 1.66 1.474 11.066 0 4.786-1.105 9.213-2.21 12.726.368 0 .736 0 1.105.166 2.21 1.107 18.604 7.94 26.893 21.94 2.579 4.233 5.158 7.193 6.079 9.96 3.131-3.32 7.368-8.107 11.42-14.193 5.158-7.553 7.184-18.26 7.184-26.726 0-2.213-.184-4.233-.552-6.086-.921-4.787 4.973-8.107 6.815-10.873 5.526-8.494 3.869-9.213 17.684-19.007a40.83 40.83 0 0 0 12.526-14.193c6.447-11.786 6.447-23.959 6.447-23.959s-45.683-7.553-62.998 8.106z" fill="#9AF4DC"/><path d="M88.308 230.27c-.92-2.766-3.5-5.727-6.078-9.96-8.29-14.026-24.5-20.832-26.894-21.939-.368-.194-.737-.194-1.105-.194-1.658 0-2.947 1.854-2.947 1.854s.736.553 1.658 1.466c3.868 3.154 12.894 10.707 14.552 12.367 10.868 10.486 13.815 17.32 14.367 21.386.553 3.486-.92 4.98-.92 4.98s3.315.913 6.446-4.26c1.29-2.214 1.474-4.04.921-5.7z" fill="#98A2F4"/><path d="M175.622 153.58c-.37-7.194-6.08-23.406-9.948-22.134-3.869 1.3-1.105 5.727-5.342 6.834-4.237 1.106-9.947 7.193-14 5.34-2.026-.914-2.763-2.96-3.131-4.62a40.83 40.83 0 0 1-12.526 14.192c-14 9.794-12.157 10.347-17.683 19.007-1.842 2.766-7.737 6.086-6.816 10.873.369 1.853.553 3.873.553 6.086 3.316 2.38 8.473 3.68 16.394 2.02 19.894-4.04 45.129-19.533 45.129-19.533s.185.36 4.052.72c3.87.387 3.87-11.593 3.318-18.786z" fill="#9AF4DC"/><path d="M22.364 193.75c4.42-3.32 10.131-4.232 20.262.941 10.131 5.146 24.868 18.62 31.13 25.62 6.263 6.999 10.132 13.639 9.58 16.212-.553 2.6-6.632 9.047-6.632 9.047s1.473-11.26-7.737-21.22c-8.289-9.02-30.577-27.28-37.577-28.386-8.105-1.273-12.158 3.32-12.158 3.32s.553-3.68 3.132-5.533z" fill="#E2603D"/><path d="M23.653 212.564c12.342 8.66 19.342 10.153 25.973 16.6 6.631 6.446 8.105 12.145 13.63 15.465 5.527 3.32 10.5 2.6 13.264.194 3.5-3.126 1.289-7.553-2.764-15.106-8.473-16.046-33.709-34.306-43.287-35.773-9.395-1.466-11.052 1.854-11.973 6.087-1.106 4.427 1.842 10.126 5.157 12.533z" fill="#FFF"/><path d="M154.622 40.203c-3.685-.36-17.131.36-23.578 1.853-9.21 2.214-19.526 2.767-29.657 5.146-14 3.32-38.683 13.086-55.445 23.96-16.763 10.9-28 32.092-28 32.092-8.288 14.193-6.078 29.493 5.343 37.958 9.026 6.64 30.393 3.154 40.156 0 2.21-.719 4.237-1.826 6.263-3.32 2.395-3.126 5.342-6.252 8.473-9.212.921-1.273 1.29-2.214 1.29-2.214h.92c1.29 0 3.869-.553 6.816-3.32 17.131-15.853 62.814-8.106 62.814-8.106s-.185-7-.553-9.213c-.553-3.126-2.395-12.726-2.395-12.726l4.421.553s3.132 2.047 8.842-2.38c11.052-8.493 19.71-13.473 21.737-26.006 2.761-17.319-9.027-22.852-27.447-25.065z" fill="#98A2F4"/><path d="M77.993 128.68c-3.131 2.96-6.079 6.086-8.473 9.212 3.868-2.932 6.815-6.805 8.473-9.212z" fill="#9ECBE3"/><path d="M131.044 42.056s-2.763-6.833-9.763-5.727c-7 1.107-9.947 3.68-15.473 3.874-5.526.193-23.578.747-30.394 4.067-6.815 3.292-8.473 8.825-16.578 11.232-8.105 2.407-16.947 1.66-22.288 15.106-5.342 13.473 1.473 24.9 3.868 30.599 2.947 7.193 7.184 12.173 16.21 10.707 8.841-1.3 22.657 15.3 22.657 15.3l6.263-2.02C90.15 123.7 91.44 118 87.94 114.68c-4.789-4.426-10.683-10.706-14.736-17.319-8.105-13.114-8.842-28.413-8.29-30.433 3.5-12.533 15.658-12.726 20.079-12.892 4.421-.194 5.342-.388 5.342-.388s-6.816 1.494-2.395 19.007c4.421 17.513 14.92 38.152 20.447 41.472 5.526 3.32 13.078 1.107 14.183.913 22.473-2.767 25.789 8.3 27.262 7.553 23.763-12.893 11.421-32.065 11.421-32.065s-9.394 9.047-25.051-2.96c-6.632-5.147-15.474-14.193-15.474-33.532.185-11.26 10.316-11.98 10.316-11.98z" fill="#3844E5"/><path d="M68.599 118s1.658-2.407 3.868-2.96c2.21-.553 3.5-.553 4.237 1.107.736 1.66 0 2.573 0 2.573s1.105-1.66 2.21.94c1.105 2.573-.552 3.32-.552 3.32s1.473-.193 1.473 2.214c0 2.379-1.842 3.486-1.842 3.486s2.21.94-2.026 4.98c-2.763 2.766-11.973 7.386-11.973 7.386s4.42-8.3 4.052-16.96c0-3.706.553-6.086.553-6.086z" fill="#E897A3"/><g transform="translate(18.054 193.474)"><mask id="b" fill="#fff"><use xlink:href="#a"/></mask><g mask="url(#b)" stroke="#45A0D4" stroke-width=".508"><path d="M10.757 47.67l33.34-42.58M14.81 50.048L48.333 7.47M19.046 52.649l33.34-42.578M23.098 55.028L56.623 12.45M27.335 57.629l33.34-42.606M31.388 60.008L64.913 17.43M35.624 62.609l33.341-42.772M39.677 64.988L73.202 22.41M43.913 67.395l33.341-42.578M47.966 69.968L81.491 27.39m-112.18-4.427L2.836-19.615M-26.636 25.37L6.889-17.236M-22.4 27.943l33.525-42.578m-29.472 44.957l33.525-42.578M-14.11 32.923L19.414-9.85m-29.472 45.152L23.467-7.276M-5.821 37.903L27.704-4.87M-1.77 40.282L31.757-2.296M2.468 42.69L35.993.11M6.52 45.262L40.045 2.684"/></g></g><path d="M187.595 151.56c-1.844-7.028-7-19.367-9.026-20.114-1.474-.553-3.87-.166-5.159 0h.553c2.026.747 7.185 13.086 9.026 20.114 1.841 7 4.053 13.64 3.132 20.639-1.106 8.106-4.79 11.62-7.923 11.232 6.08 1.494 11.238-1.466 12.526-11.232.923-7-1.288-13.64-3.13-20.64zm-12.894 17.678l5.341-2.379m2.027 2.379l-10.132 3.874m10.132-.747l-9.212 3.32" stroke="#45A0D4" stroke-width=".508"/><path d="M169.357 169.238s.553 1.494 1.106-1.106c.553-2.573 1.106-13.28-1.106-21.552m-.735-2.407s-.37-1.107-1.29-2.767c-.736-1.3-1.29-1.66-1.29-1.66" stroke="#600" stroke-width=".508" stroke-linejoin="round"/><g transform="translate(34.365 36.053)"><mask id="d" fill="#fff"><use xlink:href="#c"/></mask><g mask="url(#d)" stroke="#9ECBE3" stroke-linejoin="round" stroke-width=".508"><path d="M-32.816-23.323c2.21 7.553-8.289 10.707-6.078 18.066C-36.684 2.296-26-1.024-23.79 6.557c2.21 7.553-8.289 10.68-6.078 18.232 2.21 7.553 12.894 4.233 15.104 11.814 2.21 7.552-8.289 10.679-6.079 18.066 2.21 7.553 12.895 4.233 15.105 11.786 2.21 7.552-8.289 10.706-6.079 18.066 2.211 7.553 12.895 4.233 15.105 11.813 2.21 7.553-8.289 10.68-6.078 18.232 2.21 7.553 12.894 4.233 15.104 11.814 2.21 7.553-8.289 10.679-6.079 18.232 2.21 7.58 12.895 4.26 15.105 11.813m-37.946-184.34c2.21 7.553-8.289 10.679-6.079 18.066C-20.475-2.296-9.79-5.616-7.58 1.937c2.21 7.553-8.289 10.679-6.079 18.26 2.211 7.552 12.895 4.232 15.105 11.785 2.21 7.553-8.289 10.707-6.079 18.066 2.21 7.553 12.895 4.233 15.105 11.814 2.21 7.553-8.29 10.68-6.079 18.066 2.21 7.553 12.894 4.233 15.105 11.786 2.21 7.553-8.29 10.68-6.079 18.26 2.21 7.553 12.895 4.233 15.105 11.786 2.21 7.552-8.29 10.706-6.079 18.26 2.21 7.552 12.895 4.232 15.105 11.785M-.396-32.73c2.21 7.554-8.29 10.708-6.079 18.067C-4.265-7.11 6.42-10.403 8.63-2.85 10.84 4.703.34 7.83 2.55 15.382c2.21 7.581 12.894 4.261 15.105 11.814 2.21 7.553-8.29 10.68-6.079 18.066 2.21 7.553 12.895 4.233 15.105 11.786 2.21 7.553-8.29 10.707-6.079 18.066 2.21 7.553 12.894 4.26 15.105 11.814 2.21 7.553-8.29 10.679-6.079 18.232 2.21 7.58 12.894 4.26 15.105 11.813 2.21 7.553-8.29 10.68-6.079 18.232 2.21 7.58 12.894 4.261 15.105 11.814M15.814-37.322c2.21 7.553-8.29 10.68-6.079 18.066 2.21 7.553 12.895 4.233 15.105 11.786 2.21 7.553-8.29 10.707-6.079 18.26 2.21 7.553 12.895 4.233 15.105 11.786 2.21 7.553-8.29 10.707-6.079 18.066 2.21 7.553 12.894 4.26 15.105 11.813 2.21 7.553-8.29 10.68-6.079 18.066 2.21 7.553 12.894 4.233 15.105 11.786 2.21 7.553-8.29 10.707-6.079 18.26 2.21 7.553 12.894 4.233 15.105 11.786 2.21 7.553-8.29 10.707-6.079 18.26 2.21 7.553 12.894 4.233 15.105 11.786M32.024-41.942c2.21 7.553-8.29 10.707-6.079 18.066 2.21 7.553 12.894 4.233 15.105 11.813 2.21 7.553-8.29 10.68-6.08 18.233 2.21 7.552 12.894 4.26 15.105 11.813 2.21 7.553-8.29 10.68-6.079 18.066 2.21 7.553 12.894 4.233 15.105 11.786 2.21 7.553-8.29 10.707-6.08 18.066 2.211 7.553 12.895 4.233 15.106 11.814 2.21 7.553-8.29 10.679-6.08 18.232 2.211 7.553 12.895 4.233 15.106 11.813 2.21 7.553-8.29 10.68-6.079 18.232 2.21 7.581 12.894 4.261 15.105 11.814M48.418-46.728c2.21 7.552-8.29 10.679-6.079 18.066 2.21 7.553 12.894 4.233 15.105 11.786 2.21 7.58-8.29 10.706-6.079 18.26 2.21 7.552 12.894 4.232 15.105 11.785 2.21 7.58-8.29 10.707-6.079 18.066 2.21 7.58 12.894 4.26 15.105 11.814 2.21 7.553-8.29 10.679-6.08 18.066 2.211 7.553 12.895 4.233 15.106 11.786 2.21 7.58-8.29 10.707-6.08 18.26 2.211 7.552 12.895 4.233 15.106 11.785 2.21 7.581-8.29 10.707-6.079 18.26 2.21 7.553 12.894 4.233 15.105 11.814M64.628-51.349c2.21 7.58-8.29 10.707-6.079 18.066 2.21 7.581 12.894 4.261 15.105 11.814 2.21 7.553-8.29 10.68-6.079 18.232 2.21 7.58 12.895 4.26 15.105 11.814 2.21 7.552-8.29 10.679-6.079 18.066 2.21 7.553 12.894 4.233 15.105 11.786 2.21 7.58-8.29 10.706-6.079 18.066 2.21 7.553 12.894 4.26 15.105 11.813 2.21 7.553-8.29 10.68-6.079 18.232 2.21 7.58 12.894 4.26 15.105 11.814 2.21 7.553-8.29 10.679-6.079 18.26 2.21 7.552 12.894 4.233 15.105 11.785M80.838-55.941c2.21 7.553-8.29 10.679-6.079 18.066 2.21 7.553 12.894 4.233 15.105 11.786 2.21 7.553-8.29 10.707-6.079 18.26C85.995-.278 96.679-3.598 98.89 3.955c2.21 7.58-8.29 10.707-6.079 18.066 2.21 7.553 12.894 4.261 15.105 11.814 2.21 7.553-8.29 10.68-6.079 18.066 2.21 7.553 12.894 4.233 15.105 11.786 2.21 7.553-8.29 10.707-6.08 18.26 2.211 7.553 12.895 4.233 15.105 11.786 2.211 7.552-8.289 10.706-6.078 18.26 2.21 7.552 12.895 4.232 15.104 11.785M97.048-60.755c2.21 7.58-8.29 10.707-6.08 18.066 2.211 7.58 12.895 4.26 15.106 11.813 2.21 7.553-8.29 10.68-6.08 18.26C102.206-5.063 112.89-8.383 115.1-.83c2.21 7.553-8.289 10.68-6.078 18.066 2.21 7.553 12.894 4.233 15.105 11.786 2.21 7.58-8.29 10.707-6.08 18.066 2.211 7.58 12.895 4.26 15.106 11.814 2.211 7.553-8.29 10.679-6.08 18.26 2.211 7.552 12.894 4.232 15.106 11.785 2.208 7.553-8.291 10.68-6.08 18.26 2.212 7.553 12.894 4.233 15.106 11.786M113.442-65.348c2.21 7.553-8.29 10.68-6.079 18.066 2.21 7.553 12.894 4.233 15.105 11.786 2.21 7.58-8.29 10.707-6.08 18.26 2.211 7.553 12.895 4.233 15.105 11.786 2.211 7.58-8.289 10.707-6.078 18.066 2.21 7.58 12.895 4.26 15.104 11.813 2.212 7.553-8.288 10.68-6.08 18.066 2.212 7.553 12.897 4.233 15.106 11.786 2.212 7.58-8.288 10.707-6.08 18.26 2.212 7.553 12.897 4.233 15.106 11.786 2.212 7.58-8.288 10.707-6.08 18.26 2.213 7.553 12.897 4.233 15.106 11.813"/></g></g><path d="M72.467 50.716s-1.105 2.932 0 7.193c1.105 4.233 4.053 7 5.895 7.36 2.21.359 5.71-1.107 6.447-5.147.737-4.067 1.473-9.24-2.395-11.26-3.868-2.02-9.578 0-9.947 1.854z" fill="#E897A3"/><path d="M72.283 50.716s1.842-6.834 4.42-10.873c2.948-4.427 3.316 1.826 4.79-1.3 1.474-3.127 4.052-8.494 5.158-6.28 1.105 2.213-.185 4.066 1.842 2.047 2.026-2.048 2.394-3.514 3.868-3.154 2.21.747-2.947 7.746-2.395 9.6.553 1.854 2.395-1.3 2.395.913 0 2.767-7.368 14.386-7.368 13.64-.184-2.933-1.29-4.98-2.026-1.107-.369 1.494-2.027-4.427-6.08-4.593-4.236-.387-4.604 1.107-4.604 1.107z" fill="#E2603D"/><path d="M141.543 78.548c-.368-.193-5.158-2.407-7.736 0-2.21 1.854-3.684 1.3-3.5 2.213.552 1.66 2.947 1.826 2.947 1.826s-2.579-1.466-4.79-.166c-1.841 1.107-2.762 1.273-2.762 2.933 0 2.407 1.658 2.96 1.658 2.96s-1.842-1.3-1.474 2.02c.184 1.66 1.658 2.767 1.658 2.767s-1.474-.554-.737 2.047c.737 2.213 2.21 2.573 2.21 2.573s-1.473 1.66 2.21 3.126c3.685 1.467 10.685 3.127 15.474-.553 4.79-3.68 6.447-6.253 6.447-6.253s-5.71-2.766-9.394-8.3c-1.658-2.96-2.21-7.193-2.21-7.193z" fill="#E897A3"/><path d="M135.649 81.121s.368.913-1.474 1.107c-1.842 0-3.131-.36-3.131-.36M58.652 200.225s9.026 1.466 20.63 14.746c7 8.106 6.816 12.145 6.816 12.145m46.051-79.264c-6.631 5.893-15.289 13.833-19.157 18.066-7 7.194-5.342 13.64-5.342 16.24m32.051-41.305s-1.473 1.66-4.236 4.067m-80.497 29.298s1.105 3.874 5.158 3.127c4.973-.913 8.657-7.913 8.657-7.913m-42.919-68.225s4.789-2.74 11.42-.72c3.684 1.107 4.79 4.04 4.79 4.04m110.153-47.918s-5.157.747-7.368 7.387c-1.658 4.786-1.105 7.359-1.105 7.359" stroke="#600" stroke-width=".508" stroke-linejoin="round"/><path d="M143.754 56.968s-1.105 2.048-1.29 5.174c0 3.486 1.474 5.34 1.474 5.34" stroke="#600" stroke-width=".508" stroke-linejoin="round"/><path d="M134.175 37.242c29.289-7 53.787 5.727 51.026 22.687-2.027 12.173-10.685 16.766-21.737 25.065M63.994.557s-5.526 4.067-10.131 8.3m-8.29 8.3S31.758 34.116 26.233 44.27m182.361 50.325s1.841 10.485-8.473 35.745c-2.58 6.446-9.58 19.56-9.58 19.56m-3.499 22.299s16.578-10.514 29.104-54.033M119.807 225.29s55.63-9.213 92.101-53.091M9.285 168.685s-6.263 5.174-7 16.24m.001 11.426s2.026 19.34 18.42 31.872m30.394 19.92s9.026 9.213 22.84 7.387c13.816-1.854 20.816-11.62 20.816-11.62" stroke="#000" stroke-width=".508" stroke-linejoin="round"/><path d="M108.755 187.305s2.763 5.34-.92 16.793c-4.79 15.66-17.132 26.338-17.132 26.338" stroke="#600" stroke-width=".508" stroke-linejoin="round"/><path d="M10.022 91.994a519.721 519.721 0 0 1 7.553-14c9.21-16.212 19.157-31.151 29.84-44.985" stroke="#000" stroke-width=".508" stroke-linejoin="round"/><path fill="#E2603D" d="M.075 115.593l9.026-8.106-8.104-5.173z"/><path d="M8.18 101.207l-3.868 8.134m2.763-12.533l-4.42 9.766" stroke="#000" stroke-width=".508" stroke-linejoin="round"/></g></svg>